<svg width="14" height="14" viewBox="0 0 14 14" fill="none" xmlns="http://www.w3.org/2000/svg">
<path fill-rule="evenodd" clip-rule="evenodd" d="M9.47539 1.1665H4.52721C4.05765 1.1665 3.6701 1.16649 3.3544 1.19228C3.02651 1.21907 2.7251 1.27657 2.44199 1.42082C2.00295 1.64453 1.64599 2.00148 1.42229 2.44053C1.27803 2.72364 1.22054 3.02505 1.19375 3.35294C1.16796 3.66863 1.16796 4.05618 1.16797 4.52574V7.89483C1.16796 8.28553 1.16796 8.60805 1.18597 8.87207C1.20465 9.14582 1.24463 9.39904 1.34558 9.64277C1.5824 10.2145 2.03664 10.6687 2.60837 10.9056C2.8521 11.0065 3.10532 11.0465 3.37907 11.0652C3.64309 11.0832 3.9656 11.0832 4.35631 11.0832H4.3763C4.6893 11.0832 4.75143 11.0868 4.80199 11.0988C4.89013 11.1196 4.97221 11.1606 5.04174 11.2186C5.08163 11.2519 5.12184 11.2994 5.30964 11.5498L6.17118 12.6986C6.22563 12.7712 6.2872 12.8534 6.34645 12.9192C6.41179 12.9919 6.52038 13.0989 6.68414 13.1626C6.88814 13.2419 7.11447 13.2419 7.31847 13.1626C7.48223 13.0989 7.59082 12.9919 7.65615 12.9192C7.71541 12.8534 7.77698 12.7712 7.83143 12.6986L8.69297 11.5498C8.88077 11.2994 8.92098 11.2519 8.96087 11.2186C9.03039 11.1606 9.11248 11.1196 9.20061 11.0988C9.25118 11.0868 9.31331 11.0832 9.6263 11.0832H9.6463C10.037 11.0832 10.3595 11.0832 10.6235 11.0652C10.8973 11.0465 11.1505 11.0065 11.3942 10.9056C11.966 10.6687 12.4202 10.2145 12.657 9.64277C12.758 9.39904 12.798 9.14582 12.8166 8.87207C12.8346 8.60805 12.8346 8.28554 12.8346 7.89483V4.52573C12.8346 4.05617 12.8346 3.66863 12.8089 3.35294C12.7821 3.02505 12.7246 2.72364 12.5803 2.44053C12.3566 2.00148 11.9997 1.64453 11.5606 1.42082C11.2775 1.27657 10.9761 1.21907 10.6482 1.19228C10.3325 1.16649 9.94496 1.1665 9.47539 1.1665ZM7.0013 3.49984C6.67914 3.49984 6.41797 3.761 6.41797 4.08317C6.41797 4.40534 6.67914 4.6665 7.0013 4.6665H7.00714C7.3293 4.6665 7.59047 4.40534 7.59047 4.08317C7.59047 3.761 7.3293 3.49984 7.00714 3.49984H7.0013ZM7.58464 6.12484C7.58464 5.80267 7.32347 5.5415 7.0013 5.5415C6.67914 5.5415 6.41797 5.80267 6.41797 6.12484V8.1665C6.41797 8.48867 6.67914 8.74984 7.0013 8.74984C7.32347 8.74984 7.58464 8.48867 7.58464 8.1665V6.12484Z" fill="#FF6767"/>
</svg>
