<svg width="14" height="14" viewBox="0 0 14 14" fill="none" xmlns="http://www.w3.org/2000/svg">
<path d="M3.59375 1.75H10.4054C10.7129 1.74999 10.9782 1.74998 11.1967 1.76783C11.4273 1.78668 11.6567 1.82828 11.8774 1.94074C12.2067 2.10852 12.4744 2.37623 12.6422 2.70552C12.7546 2.92624 12.7962 3.15562 12.8151 3.38624C12.8329 3.60473 12.8329 3.87001 12.8329 4.17751V7.81664C12.8329 8.14333 12.8329 8.30668 12.7693 8.43146C12.7134 8.54123 12.6242 8.63046 12.5144 8.68639C12.3896 8.74997 12.2263 8.74997 11.8996 8.74997H9.13617L9.1064 8.74992C8.99562 8.74962 8.85612 8.74925 8.71884 8.7822C8.5998 8.81078 8.486 8.85792 8.38161 8.92189C8.26124 8.99565 8.16286 9.09456 8.08474 9.1731V9.1731C7.98166 9.27632 7.84032 9.3319 7.69445 9.3319H6.3047C6.15882 9.3319 6.01748 9.27632 5.9144 9.1731V9.1731C5.83628 9.09456 5.7379 8.99565 5.61753 8.92189C5.51314 8.85792 5.39934 8.81078 5.2803 8.7822C5.14302 8.74925 5.00353 8.74962 4.89274 8.74992L4.86297 8.74997H2.09957C1.77287 8.74997 1.60953 8.74997 1.48474 8.68639C1.37498 8.63046 1.28574 8.54123 1.22982 8.43146C1.16624 8.30668 1.16624 8.14333 1.16624 7.81664L1.16624 4.17752C1.16623 3.87001 1.16622 3.60474 1.18407 3.38624C1.20291 3.15562 1.24451 2.92624 1.35698 2.70552C1.52476 2.37623 1.79247 2.10852 2.12176 1.94074C2.34248 1.82828 2.57185 1.78668 2.80247 1.76783C3.02096 1.74998 3.28627 1.74999 3.59375 1.75Z" fill="#FF6767"/>
<path d="M1.47771 9.91692C1.16157 9.91682 1.0035 9.91677 0.869588 9.99267C0.765337 10.0518 0.655797 10.1789 0.612782 10.2908C0.557531 10.4344 0.5763 10.5596 0.613839 10.8099C0.621662 10.8621 0.631108 10.9105 0.642482 10.953C0.804299 11.5569 1.27601 12.0286 1.87992 12.1904C2.10481 12.2507 2.36033 12.2504 2.6565 12.2501H11.3425C11.6387 12.2504 11.8942 12.2507 12.1191 12.1904C12.723 12.0286 13.1947 11.5569 13.3566 10.953C13.3679 10.9107 13.3772 10.8624 13.385 10.8101C13.4222 10.5592 13.4408 10.4337 13.3854 10.2903C13.3422 10.1785 13.2328 10.0517 13.1285 9.99265C12.9946 9.91691 12.8364 9.91702 12.5199 9.91722L9.21409 9.9194C9.07009 9.9195 8.93283 9.97495 8.83107 10.0768V10.0768C8.75295 10.1554 8.65457 10.2543 8.53419 10.328C8.42981 10.392 8.31601 10.4392 8.19697 10.4677C8.05969 10.5007 7.9202 10.5003 7.80942 10.5L7.77964 10.5H6.2195L6.18973 10.5C6.07895 10.5003 5.93945 10.5007 5.80218 10.4677C5.68313 10.4392 5.56933 10.392 5.46495 10.328C5.34458 10.2543 5.2462 10.1554 5.16807 10.0768V10.0768C5.0651 9.9735 4.92366 9.91802 4.77778 9.91797L1.47771 9.91692Z" fill="#FF6767"/>
</svg>
